<svg width="21" height="20" viewBox="0 0 21 20" fill="none" xmlns="http://www.w3.org/2000/svg">
<g clip-path="url(#clip0_7_1972)">
<path d="M4.59667 2.08751C4.59667 2.08751 4.53 2.19334 4.59333 2.35001C4.63167 2.44668 4.74833 2.56334 4.87667 2.68668C4.87667 2.68668 6.2225 4.00001 6.3875 4.19001C7.13333 5.05084 7.4575 5.89834 7.4875 7.06751C7.50583 7.81751 7.36167 8.47751 7.01 9.24501C6.38 10.6192 5.05167 12.135 3.00167 13.82L3.30167 13.72C3.49583 13.5758 3.75833 13.4208 4.37833 13.0817C5.80583 12.3017 7.40833 11.5833 9.3775 10.8433C12.21 9.77918 16.8692 8.53001 19.5208 8.12418L19.7967 8.08168L19.755 8.01501C19.5117 7.63834 19.3467 7.40584 19.1467 7.15918C18.5658 6.44001 17.8617 5.85334 16.9992 5.37084C15.8142 4.70668 14.2767 4.19084 12.3325 3.80418C11.7256 3.69006 11.1169 3.58588 10.5067 3.49168C9.415 3.32426 8.32495 3.14647 7.23667 2.95834C6.8825 2.89584 6.35333 2.80751 6.0025 2.73168C5.73195 2.67419 5.46463 2.60243 5.20167 2.51668C4.97833 2.42918 4.66417 2.34418 4.59667 2.08751ZM5.37667 2.84501C5.37917 2.84334 5.42917 2.85918 5.49083 2.88001C5.60417 2.91834 5.75417 2.96334 5.92917 3.01251C6.05083 3.04584 6.185 3.08251 6.32833 3.11834C6.51 3.16501 6.66083 3.20501 6.6625 3.20751C6.6825 3.23001 6.98833 4.20584 7.0925 4.58001C7.1325 4.72334 7.1625 4.84251 7.16 4.84501C7.13096 4.80887 7.10582 4.76977 7.085 4.72834C6.73167 4.10668 6.17083 3.47418 5.52333 2.96501C5.47299 2.92682 5.42407 2.88679 5.37667 2.84501ZM6.86833 3.25668C6.88333 3.25584 6.95083 3.26668 7.03083 3.28501C7.54667 3.39834 8.46833 3.57668 9.06 3.67668C9.15917 3.69334 9.24 3.71001 9.24 3.71584C9.21586 3.73751 9.18825 3.75498 9.15833 3.76751C9.05917 3.81751 8.65667 4.05834 8.5225 4.14834C8.18667 4.37334 7.88417 4.61418 7.66417 4.83251C7.61081 4.88723 7.55607 4.94058 7.5 4.99251C7.4975 4.99251 7.48167 4.94084 7.46583 4.87834C7.32432 4.37077 7.14321 3.87509 6.92417 3.39584C6.90217 3.35102 6.88242 3.30513 6.865 3.25834C6.865 3.25751 6.865 3.25668 6.86833 3.25668ZM9.49083 3.75501C9.5075 3.76084 9.54083 3.86334 9.59833 4.09168C9.73115 4.63009 9.77423 5.18674 9.72583 5.73918L9.71583 5.77084L9.56 5.72084C9.23667 5.61751 8.71 5.46251 8.25833 5.33751C8.10077 5.29719 7.94506 5.24992 7.79167 5.19584C7.79167 5.17751 8.16583 4.80334 8.32667 4.66084C8.63417 4.38918 9.46167 3.74584 9.49083 3.75501ZM9.69917 3.78501C9.70833 3.77668 10.9525 3.99168 11.5175 4.10001C11.9392 4.18084 12.5483 4.30834 12.585 4.32418C12.6033 4.33084 12.54 4.36584 12.3375 4.45751C11.5375 4.81751 10.9442 5.14084 10.3542 5.53501C10.1992 5.63834 10.07 5.72334 10.0675 5.72334C10.0642 5.72334 10.0625 5.63668 10.0625 5.53168C10.0625 4.95668 9.94667 4.37584 9.73667 3.88501C9.72108 3.85292 9.70853 3.81944 9.69917 3.78501ZM12.9158 4.42168C12.925 4.43084 12.8842 4.67668 12.8492 4.82168C12.7392 5.27168 12.4475 5.94168 12.0875 6.57084C12.0497 6.64181 12.0074 6.71028 11.9608 6.77584C11.8975 6.74898 11.8364 6.71693 11.7783 6.68001C11.4267 6.47418 11.0283 6.28001 10.5908 6.09918C10.5125 6.0684 10.4353 6.03505 10.3592 5.99918C10.3392 5.98084 11.3117 5.33668 11.8275 5.02751C12.24 4.78001 12.9042 4.41001 12.9158 4.42168ZM13.1458 4.45751C13.1733 4.45751 13.725 4.60751 14.01 4.69334C14.7208 4.90584 15.5408 5.20501 16.0725 5.44668L16.2933 5.54668L16.1375 5.58251C14.8367 5.88251 13.7208 6.22668 12.6475 6.66251C12.5583 6.69918 12.4808 6.72918 12.475 6.72918C12.4901 6.67565 12.5111 6.62395 12.5375 6.57501C12.8608 5.88918 13.0692 5.16918 13.1233 4.55834C13.1283 4.50251 13.1383 4.45751 13.1458 4.45751ZM7.6625 5.71751C7.67083 5.70918 8.09083 5.80751 8.32 5.87168C8.66417 5.96834 9.39667 6.21334 9.39667 6.23251C9.39667 6.23584 9.31583 6.30668 9.2175 6.38918C8.82167 6.72001 8.43917 7.06668 7.98167 7.50834C7.8993 7.59089 7.81367 7.67012 7.725 7.74584C7.71917 7.74584 7.71667 7.72668 7.72 7.70418C7.78917 7.19501 7.77417 6.54168 7.67833 5.87668C7.66887 5.82438 7.6633 5.77146 7.66167 5.71834L7.6625 5.71751ZM16.5042 5.72584C16.51 5.73251 16.3092 6.04668 16.1842 6.22584C16.0008 6.48751 15.7367 6.83084 15.1333 7.59001L14.3383 8.59168C14.2657 8.68586 14.191 8.77839 14.1142 8.86918C14.1117 8.86918 14.0725 8.81418 14.0283 8.74751C13.6877 8.2392 13.2751 7.78305 12.8033 7.39334C12.7294 7.33144 12.6544 7.27087 12.5783 7.21168C12.5558 7.19658 12.5352 7.17897 12.5167 7.15918C12.5167 7.15084 13.0308 6.93084 13.4233 6.77084C14.1837 6.4652 14.956 6.18999 15.7383 5.94584C16.1067 5.83334 16.4983 5.72084 16.5042 5.72584ZM16.7358 5.78668C16.7966 5.80721 16.8545 5.83521 16.9083 5.87001C17.6431 6.29097 18.3227 6.80154 18.9317 7.39001C19.0933 7.54834 19.4875 7.95918 19.4817 7.96251L19.1792 7.98668C17.9042 8.08251 16.2742 8.35334 14.7042 8.73084C14.5975 8.75584 14.5058 8.77751 14.4992 8.77751C14.4933 8.77751 14.61 8.66084 14.7583 8.51751C15.6808 7.63168 16.1008 7.07251 16.5958 6.07251C16.6692 5.92418 16.7317 5.79501 16.7342 5.78751H16.7358V5.78668ZM9.99583 6.47834C10.0383 6.48668 10.4317 6.67001 10.7283 6.81834C10.9992 6.95418 11.41 7.17334 11.4308 7.19251C11.4333 7.19501 11.2892 7.27001 11.1092 7.36001C10.54 7.64501 10.0525 7.91334 9.54417 8.22418C9.39833 8.31334 9.2775 8.38584 9.27333 8.38584C9.26083 8.38584 9.265 8.37501 9.34667 8.22668C9.62808 7.70179 9.83506 7.14029 9.96167 6.55834C9.97333 6.50668 9.98667 6.47501 9.99583 6.47751V6.47834ZM9.6 6.54834C9.60833 6.55668 9.50667 6.93168 9.44167 7.13168C9.26559 7.65786 9.03225 8.16312 8.74583 8.63834L8.67083 8.76084L8.50167 8.59668C8.33706 8.42892 8.14693 8.28829 7.93833 8.18001C7.88671 8.15669 7.83757 8.12821 7.79167 8.09501C7.79167 8.07001 8.30833 7.60084 8.70667 7.26334C8.9925 7.02168 9.59333 6.54084 9.6 6.54834ZM12.0067 7.53834L12.1542 7.63418C12.4933 7.85418 12.8942 8.15001 13.2 8.40418C13.3717 8.54751 13.7042 8.84584 13.7725 8.91751L13.8092 8.95668L13.5642 9.02501C12.3115 9.36668 11.0742 9.76261 9.85583 10.2117C9.71667 10.2625 9.5975 10.305 9.58917 10.305C9.57167 10.305 9.55417 10.3208 9.86667 10.0333C10.6667 9.29751 11.3725 8.48668 11.9 7.69834L12.0067 7.53834ZM11.3742 7.69668C11.3817 7.70418 10.9642 8.28834 10.7167 8.61834C10.42 9.01251 9.89167 9.67251 9.52833 10.1017C9.43555 10.2148 9.3394 10.3251 9.24 10.4325C9.23167 10.435 9.2275 10.3908 9.22667 10.3217C9.22667 9.95501 9.13333 9.56334 8.97 9.23168C8.90083 9.09168 8.88917 9.05834 8.90333 9.04501C8.96 8.99334 9.8425 8.49001 10.3983 8.19251C10.7808 7.98751 11.3675 7.68918 11.3742 7.69668ZM7.54917 8.63418C7.79133 8.7502 8.01854 8.89515 8.22583 9.06584C8.2325 9.07001 8.15333 9.13501 8.05083 9.20918C7.76333 9.41668 7.32583 9.74584 7.07333 9.94751C6.80667 10.16 6.7975 10.1667 6.8275 10.12C7.0275 9.81418 7.1275 9.64168 7.2325 9.42001C7.32667 9.22334 7.41917 8.99001 7.48583 8.78668C7.49959 8.73296 7.52038 8.68157 7.54917 8.63418ZM8.56833 9.43418C8.5825 9.43168 8.60167 9.45751 8.68417 9.58001C8.85667 9.83834 8.98917 10.1817 9.02333 10.4617L9.03 10.5225L8.61583 10.6825C7.87417 10.9708 7.19 11.255 6.7275 11.4658C6.59833 11.5258 6.37083 11.6342 6.22167 11.7092C6.0725 11.7842 5.95083 11.8425 5.95083 11.8392C5.95083 11.8358 6.04417 11.765 6.15917 11.6825C7.065 11.0242 7.84667 10.3042 8.43583 9.58334C8.49833 9.50668 8.55583 9.44001 8.56333 9.43501C8.56487 9.43413 8.56657 9.43356 8.56833 9.43334V9.43418ZM8.09833 9.55084C8.11083 9.56251 7.76417 9.95418 7.53083 10.1925C6.9475 10.7883 6.3675 11.255 5.65083 11.71C5.56083 11.7675 5.47917 11.8183 5.4675 11.825C5.44833 11.8367 5.47417 11.8067 5.78917 11.4633C5.9875 11.2475 6.13917 11.0683 6.3125 10.8442C6.42583 10.6967 6.4475 10.6758 6.61417 10.5558C7.06167 10.2325 8.08667 9.53834 8.09833 9.55001V9.55084ZM8.93083 1.01017e-05C8.86417 -0.00832323 7.78833 0.379177 7.0975 0.659177C6.16167 1.04001 5.43417 1.40418 4.98583 1.71918C4.81917 1.83584 4.60917 2.04668 4.57917 2.12751C4.56734 2.16038 4.56142 2.19508 4.56167 2.23001L4.96833 2.61334L5.93333 2.92168L8.2325 3.33334L10.86 3.78501L10.8867 3.56001L10.8633 3.55584L10.5175 3.50084L10.4467 3.37751C10.0895 2.74742 9.7622 2.10087 9.46583 1.44001C9.29289 1.04284 9.14537 0.63507 9.02417 0.219177C8.9675 0.0166768 8.96167 0.00417677 8.93083 1.01017e-05ZM8.88 0.15501H8.88417C8.88667 0.15751 8.89833 0.24251 8.91083 0.34251C8.9625 0.765844 9.0575 1.17584 9.20583 1.61751C9.3175 1.95084 9.31917 1.93168 9.18583 1.89418C8.8775 1.80834 7.4925 1.57084 6.49083 1.43168C6.39137 1.41899 6.29219 1.40427 6.19333 1.38751C6.18083 1.37501 6.91583 0.99001 7.24167 0.83751C7.65917 0.644177 8.7975 0.170843 8.88 0.15501ZM5.96167 1.51168L6.07917 1.55168C6.7225 1.77001 8.33417 2.07834 9.225 2.15168C9.325 2.16001 9.41 2.16918 9.4125 2.17168C9.415 2.17418 9.32917 2.22001 9.2225 2.27334C8.79333 2.48834 8.32 2.75084 7.9925 2.95584C7.89667 3.01584 7.80917 3.06418 7.79667 3.06334C7.74931 3.05668 7.70209 3.04918 7.655 3.04084L7.535 3.02168L7.23083 2.72584C6.69667 2.20918 6.28 1.80918 6.11833 1.65918L5.96167 1.51168ZM5.8425 1.60668L6.26833 2.13834C6.50333 2.43001 6.73833 2.72084 6.79 2.78334C6.8425 2.84584 6.8825 2.89834 6.88 2.90001C6.86833 2.90918 6.26333 2.79168 5.9425 2.71751C5.71671 2.66952 5.49339 2.61056 5.27333 2.54084L5.10667 2.48751L5.1075 2.44668C5.11 2.24251 5.3675 1.94084 5.80417 1.63334L5.8425 1.60668ZM9.46917 2.33084C9.48167 2.33168 9.49583 2.35751 9.53333 2.44001C9.63667 2.66668 9.95833 3.28001 10.0358 3.39834C10.0608 3.43751 10.1025 3.44001 9.675 3.37084C8.65 3.20584 8.3175 3.15001 8.3175 3.14334C8.33837 3.12523 8.36165 3.11009 8.38667 3.09834C8.71364 2.91487 9.02252 2.70086 9.30917 2.45918L9.455 2.33668C9.46 2.33251 9.465 2.33001 9.46917 2.33084ZM13.06 9.33751L9.05333 10.6442L5.57 12.1825L4.595 12.4408C4.34667 12.6758 4.08417 12.9142 3.805 13.1575C3.49667 13.425 3.20833 13.6675 2.98833 13.8425C2.70049 14.0806 2.43469 14.3442 2.19417 14.63C1.9175 14.975 1.70083 15.3417 1.6075 15.6242C1.44083 16.1325 1.52167 16.6475 1.845 17.1225C2.2575 17.7292 3.07833 18.3458 4.0325 18.7658C4.52 18.9792 5.34083 19.2558 5.9575 19.4108C6.985 19.6708 8.96917 19.9525 10.0625 19.9942C10.2842 20.0025 10.5792 20.0025 10.5933 19.9925C10.6167 19.9767 10.7875 19.655 10.985 19.2508C11.6567 17.8792 12.1425 16.5925 12.4042 15.4942C12.5625 14.8283 12.6858 13.9417 12.7658 12.89C12.7883 12.595 12.7967 11.6125 12.7792 11.2783C12.7584 10.8017 12.7074 10.3269 12.6267 9.85668C12.6161 9.81591 12.6127 9.77361 12.6167 9.73168C12.6283 9.72334 12.6658 9.71084 13.1583 9.56751L13.06 9.33751ZM12.1433 9.87501C12.1808 9.87501 12.2767 10.8033 12.3025 11.3917C12.3075 11.5175 12.3067 11.5975 12.2992 11.5975C12.2758 11.5975 11.7867 11.31 11.4392 11.0925C11.1112 10.8859 10.7884 10.6714 10.4708 10.4492C10.4417 10.4258 10.445 10.425 10.6925 10.34C11.1133 10.195 12.1125 9.87501 12.1442 9.87501H12.1433ZM10.1033 10.5442C10.1283 10.5442 10.1992 10.5833 10.3658 10.6875C10.9908 11.0792 11.8375 11.55 12.1992 11.7083C12.3125 11.7583 12.325 11.7383 12.0658 11.9142C11.5142 12.2892 10.8275 12.6575 9.985 13.0325C9.894 13.0741 9.80203 13.1136 9.70917 13.1508C9.71532 13.0942 9.72733 13.0383 9.745 12.9842C9.94917 12.23 10.0642 11.4675 10.0675 10.8558C10.0692 10.5542 10.0692 10.5525 10.0983 10.545H10.1033V10.5442ZM9.68333 10.705C9.70083 10.7233 9.68833 11.4 9.66667 11.585C9.60321 12.1059 9.48649 12.6188 9.31833 13.1158C9.30667 13.13 8.8925 12.7258 8.755 12.5658C8.53728 12.3189 8.35009 12.0467 8.1975 11.755C8.12917 11.62 8.01917 11.3517 8.02917 11.3442C8.07583 11.3108 9.67167 10.6942 9.68333 10.705ZM7.70417 11.485C7.7075 11.485 7.71083 11.4858 7.7125 11.4883C7.73098 11.5234 7.74658 11.5599 7.75917 11.5975C7.85583 11.86 8.0725 12.2492 8.26083 12.4975C8.50761 12.8243 8.79208 13.1208 9.10833 13.3808C9.1275 13.3975 9.13333 13.3942 8.64 13.5808C8.00844 13.819 7.37102 14.0413 6.72833 14.2475C6.45583 14.3358 6.225 14.41 6.21583 14.4142C6.18833 14.4233 6.19667 14.4067 6.27667 14.2825C6.6325 13.7275 7.17083 12.6408 7.4725 11.8725C7.52417 11.7392 7.57417 11.6058 7.58333 11.5758C7.59583 11.5325 7.60917 11.5175 7.65 11.4992C7.66674 11.4904 7.68527 11.4855 7.70417 11.485ZM7.0975 11.735C7.10583 11.7425 6.9525 12.0667 6.80083 12.3608C6.50833 12.9325 6.185 13.495 5.75667 14.1817L5.605 14.4217C5.59 14.4442 5.58333 14.4367 5.53667 14.3433C5.42772 14.121 5.34924 13.885 5.30333 13.6417C5.26048 13.3419 5.26611 13.0372 5.32 12.7392C5.35917 12.55 5.3575 12.5542 5.44667 12.5092C5.83167 12.3117 7.085 11.7242 7.0975 11.735ZM12.3208 11.9475V12.0758C12.3122 12.9111 12.2412 13.7445 12.1083 14.5692C11.5588 14.4106 11.0284 14.1921 10.5267 13.9175C10.2317 13.7558 9.80583 13.495 9.81833 13.4825C9.82083 13.4792 9.94667 13.4133 10.0967 13.335C10.6917 13.0267 11.2592 12.6933 11.7533 12.3633C11.9383 12.24 12.2158 12.0392 12.2775 11.985L12.3208 11.9475ZM4.81083 12.8417C4.82333 12.8417 4.82 12.865 4.80083 12.9758C4.78431 13.0836 4.77291 13.192 4.76667 13.3008C4.74167 13.7442 4.81417 14.0708 5.03333 14.5175C5.095 14.6425 5.14333 14.7458 5.14083 14.7475C5.11833 14.7667 3.11583 15.3525 2.48583 15.525L2.12333 15.625C2.10083 15.6317 2.09917 15.6267 2.10667 15.575C2.17583 15.1308 2.515 14.5483 2.98833 14.0583C3.30333 13.7333 3.555 13.54 3.98417 13.2958C4.25691 13.1394 4.53252 12.988 4.81083 12.8417ZM9.535 13.6875C9.53666 13.6858 9.61083 13.725 9.69917 13.7767C10.3467 14.1508 11.2492 14.5017 12.0183 14.6775L12.0883 14.6942L11.9925 14.7467C11.5908 14.97 10.2667 15.5208 8.91417 16.0275C8.77145 16.0808 8.62895 16.1347 8.48667 16.1892C8.46503 16.1998 8.44204 16.2074 8.41833 16.2117C8.41833 16.2083 8.47417 16.1017 8.5425 15.9733C8.9225 15.2633 9.30083 14.4008 9.49583 13.8025C9.515 13.7417 9.5325 13.69 9.535 13.6875ZM9.05333 13.8458C9.0389 13.8939 9.02136 13.9409 9.00083 13.9867C8.69342 14.7127 8.34251 15.4196 7.95 16.1033C7.88336 16.2255 7.81333 16.3459 7.74 16.4642C7.73583 16.4642 7.645 16.4092 7.53667 16.3433C6.895 15.95 6.32667 15.4667 5.95333 14.9958L5.9 14.9292L6.17667 14.8533C7.08357 14.6108 7.97195 14.3036 8.835 13.9342C8.95333 13.8842 9.05167 13.8433 9.05333 13.8458ZM12.045 14.89C12.0458 14.89 12.0467 14.8908 12.0467 14.8925C12.0467 14.9592 11.8942 15.5825 11.7667 16.0342C11.66 16.4117 11.57 16.7075 11.4042 17.2317C11.3619 17.3731 11.3152 17.5132 11.2642 17.6517C10.4088 17.5055 9.57092 17.2706 8.76417 16.9508C8.5833 16.8801 8.40563 16.8014 8.23167 16.715C8.22667 16.7092 8.40917 16.6233 8.63667 16.5233C10.0158 15.9225 11.4442 15.2375 11.9325 14.9433C11.9666 14.9192 12.0047 14.9011 12.045 14.89ZM5.13917 15.1258C5.14667 15.1333 4.76083 15.685 4.2225 16.4392L3.73333 17.125C3.6525 17.2408 3.52917 17.4233 3.45917 17.5317L3.33167 17.7283L3.19667 17.6142C3.0375 17.4808 2.75917 17.1967 2.6325 17.0392C2.3725 16.715 2.19667 16.3742 2.12667 16.0608C2.095 15.9158 2.09333 15.8425 2.12417 15.8333C2.66067 15.7039 3.1979 15.5775 3.73583 15.4542L4.81917 15.2C4.99333 15.1583 5.1375 15.125 5.13917 15.1258ZM5.52667 15.2742L5.62417 15.3833C6.03137 15.8457 6.51163 16.2381 7.04583 16.545C7.14167 16.6 7.21417 16.6483 7.20833 16.6517C6.00904 17.0865 4.80622 17.5115 3.6 17.9267C3.57934 17.9144 3.55931 17.901 3.54 17.8867L3.48417 17.8467L3.57167 17.72C3.855 17.3092 4.21167 16.8575 4.9925 15.9183L5.52667 15.2742ZM7.94333 17.0017C7.94583 16.9992 8.08083 17.0467 8.245 17.1083C8.63917 17.2558 8.94833 17.3517 9.3675 17.4567C9.88167 17.5858 10.6258 17.715 11.0658 17.7517C11.1325 17.7567 11.1675 17.765 11.1575 17.7717C11.1367 17.785 10.6908 17.9333 10.3633 18.0367C9.07912 18.4273 7.79129 18.8059 6.5 19.1725C6.47083 19.1783 6.36917 19.1517 6.36917 19.1392C6.36917 19.1317 6.44167 19.04 6.53 18.9342C6.97063 18.4065 7.38128 17.8546 7.76 17.2808C7.82078 17.1876 7.88189 17.0945 7.94333 17.0017ZM7.40833 17.0167C7.4125 17.0208 7.1975 17.365 6.82 17.96C6.66 18.2108 6.47917 18.4975 6.4175 18.595C6.355 18.6933 6.26417 18.8433 6.21583 18.9283L6.12667 19.0825L6.08167 19.0708C5.97333 19.0417 5.2075 18.7708 5.00583 18.6908C4.755 18.5908 4.49333 18.4708 4.30083 18.3667C4.06 18.2367 3.755 18.0433 3.77833 18.0358L4.69917 17.7842C6.02583 17.4225 6.76 17.215 7.24083 17.0642C7.33167 17.0367 7.4075 17.015 7.40833 17.0167ZM11.1775 17.9008H11.1825C11.195 17.9325 10.7033 19.2925 10.5242 19.7242C10.4833 19.8208 10.4692 19.845 10.4475 19.8433C10.0487 19.793 9.65065 19.7374 9.25333 19.6767C8.49833 19.5617 7.23417 19.3408 6.915 19.2683L6.84083 19.2517L7.29333 19.15C8.26333 18.9317 8.72917 18.8142 9.20167 18.6692C9.81071 18.4817 10.406 18.2523 10.9833 17.9825C11.0775 17.9392 11.1583 17.905 11.1775 17.9008Z" fill="#CC2927"/>
</g>
<defs>
<clipPath id="clip0_7_1972">
<rect width="20" height="20" fill="white" transform="translate(0.659973)"/>
</clipPath>
</defs>
</svg>
